PathFileType	4	(X/Y/Z)	C:/Users/opensim2020/Desktop/walking_exp_matlab/subject01/subject01_trc/subject01_walking17_run_cyclic.trc																																																																																																																																																																																					
DataRate	CameraRate	NumFrames	NumMarkers	Units	OrigDataRate	OrigDataStartFrame	OrigNumFrames																																																																																																																																																																																	
100	100	7	61	mm	100	300	58																																																																																																																																																																																	
Frame#	Time	LTHI			LKNE			RELB			STRN			RWRA			LSHO			RFRM			RUPA			RSHO			RASI			RBHD			RFIN			LFHD			RFHD			CLAV			LHEE			RWRB			LASI			LBHD			LWRA			LTIB			RTHI			LWRB			LTOE			RKNE			C7			LFRM			LFIN			LUPA			LELB			RTIB			RTOE			RBAK			RANK			T10			LPSI			LANK			RHEE			RPSI			*39			*40			*41			*42			*43			*44			*45			*46			*47			*48			*49			*50			*51			*52			*53			*54			*55			*56			*57			*58			*59			*60		
		X1	Y1	Z1	X2	Y2	Z2	X3	Y3	Z3	X4	Y4	Z4	X5	Y5	Z5	X6	Y6	Z6	X7	Y7	Z7	X8	Y8	Z8	X9	Y9	Z9	X10	Y10	Z10	X11	Y11	Z11	X12	Y12	Z12	X13	Y13	Z13	X14	Y14	Z14	X15	Y15	Z15	X16	Y16	Z16	X17	Y17	Z17	X18	Y18	Z18	X19	Y19	Z19	X20	Y20	Z20	X21	Y21	Z21	X22	Y22	Z22	X23	Y23	Z23	X24	Y24	Z24	X25	Y25	Z25	X26	Y26	Z26	X27	Y27	Z27	X28	Y28	Z28	X29	Y29	Z29	X30	Y30	Z30	X31	Y31	Z31	X32	Y32	Z32	X33	Y33	Z33	X34	Y34	Z34	X35	Y35	Z35	X36	Y36	Z36	X37	Y37	Z37	X38	Y38	Z38	X39	Y39	Z39	X40	Y40	Z40	X41	Y41	Z41	X42	Y42	Z42	X43	Y43	Z43	X44	Y44	Z44	X45	Y45	Z45	X46	Y46	Z46	X47	Y47	Z47	X48	Y48	Z48	X49	Y49	Z49	X50	Y50	Z50	X51	Y51	Z51	X52	Y52	Z52	X53	Y53	Z53	X54	Y54	Z54	X55	Y55	Z55	X56	Y56	Z56	X57	Y57	Z57	X58	Y58	Z58	X59	Y59	Z59	X60	Y60	Z60	X61	Y61	Z61
																																																																																																																																																																																								
17	0.16	-631.79944	583.29858	-539.76959	-589.01331	454.52972	-510.85303	-799.16675	1100.7356	-91.70547	-580.11078	1137.60266	-420.40817	-647.85431	941.2182	-220.57211	-661.33411	1315.12073	-589.11749	-736.06464	988.20721	-126.35365	-760.39294	1218.6908	-139.1044	-640.75385	1342.29688	-275.19751	-692.50873	895.41467	-284.53098	-715.85193	1553.71228	-353.41281	-597.6778	880.83228	-209.27681	-633.31842	1620.55066	-484.0914	-616.51208	1628.90405	-373.39139	-595.38055	1297.7218	-428.88065	-756.27869	45.69877	-381.81409	-662.82452	903.3728	-180.57025	-695.5636	897.6886	-488.11548	-732.45728	1548.62488	-471.34912	-588.14886	907.09937	-648.10406	-648.9328	275.75885	-508.62643	-723.6676	552.7746	-209.05927	-615.48279	864.6214	-680.67938	-564.01672	29.87229	-444.30759	-723.91187	398.173	-229.72749	-733.27979	1384.28833	-427.78409	-703.62854	944.14795	-715.99365	-534.07056	849.47772	-662.89178	-748.37079	1164.25745	-688.16962	-794.52692	1026.5614	-728.93152	-896.38989	382.32248	-229.54091	-1134.48096	212.41626	-261.15591	-813.12299	1217.85925	-331.31903	-1095.45129	352.16714	-274.85583	-826.7655	1113.54504	-393.59317	-874.3385	912.49017	-440.96835	-708.16925	67.86927	-436.53271	-1132.32361	389.36365	-331.73953	-863.26019	924.39667	-295.79721	1973.17249	1023.56689	-3102.02686	2012.58252	1022.21741	-3140.67578	NaN	NaN	NaN	-635.96539	1660.05627	-394.88528	NaN	NaN	NaN	NaN	NaN	NaN	NaN	NaN	NaN	NaN	NaN	NaN	NaN	NaN	NaN	NaN	NaN	NaN	NaN	NaN	NaN	NaN	NaN	NaN	NaN	NaN	NaN	NaN	NaN	NaN	NaN	NaN	NaN	NaN	NaN	NaN	NaN	NaN	NaN	NaN	NaN	NaN	NaN	NaN	NaN	NaN	NaN	NaN	NaN	NaN	NaN	NaN	NaN	NaN
18	0.17	-606.48401	570.4845	-539.60455	-567.67548	443.29797	-510.73422	-767.57141	1105.82935	-90.45658	-535.47601	1132.37842	-418.86667	-623.62616	926.77826	-201.8654	-612.44122	1306.9408	-590.9917	-711.86462	986.67102	-114.5313	-724.09161	1220.15955	-142.84503	-598.34241	1338.53394	-275.99924	-648.75891	889.45728	-287.07306	-672.46765	1548.68799	-357.14697	-579.02753	864.36572	-183.45317	-589.65222	1615.73767	-487.51181	-573.94128	1624.96729	-376.47211	-550.25305	1292.55249	-428.82175	-756.06616	44.77574	-378.4538	-643.27576	893.06122	-159.3053	-654.40216	893.31378	-490.37979	-687.69598	1542.29956	-475.0766	-514.44818	905.91217	-633.8772	-633.54382	267.65448	-505.54791	-654.10748	552.30383	-210.20479	-537.51868	859.75073	-665.97552	-564.49207	29.74569	-443.32715	-643.52502	397.73184	-232.47127	-686.23224	1381.45984	-431.72839	-628.24731	930.28772	-706.28082	-456.8609	852.94843	-646.4162	-688.11993	1149.21582	-686.80365	-725.03064	1004.84094	-726.58807	-815.28186	378.97937	-229.63474	-1043.35461	206.80345	-255.43877	-770.45654	1214.05371	-336.94104	-1014.33246	347.6041	-272.37097	-782.35095	1111.56116	-395.51419	-834.98737	905.21722	-439.01981	-707.85193	66.94548	-433.36084	-1056.33948	382.41928	-328.37213	-823.94305	910.70337	-293.88144	1973.07996	1023.90552	-3101.91772	2012.4342	1022.08789	-3140.823	NaN	NaN	NaN	-594.37152	1653.65881	-398.32983	NaN	NaN	NaN	NaN	NaN	NaN	NaN	NaN	NaN	NaN	NaN	NaN	NaN	NaN	NaN	NaN	NaN	NaN	NaN	NaN	NaN	NaN	NaN	NaN	NaN	NaN	NaN	NaN	NaN	NaN	NaN	NaN	NaN	NaN	NaN	NaN	NaN	NaN	NaN	NaN	NaN	NaN	NaN	NaN	NaN	NaN	NaN	NaN	NaN	NaN	NaN	NaN	NaN	NaN
19	0.18	-583.60162	559.75385	-539.34778	-548.56409	433.32535	-512.61829	-734.70435	1112.80627	-89.69318	-490.92368	1128.49597	-417.25238	-601.50598	915.69965	-182.76773	-562.97498	1300.7085	-591.70441	-686.75519	988.35193	-103.75764	-686.65424	1221.70105	-146.47339	-555.80914	1335.86536	-277.11035	-607.00214	882.62378	-287.78442	-629.39948	1544.55811	-360.6261	-561.85419	852.0415	-158.42744	-545.4967	1611.87122	-490.54904	-531.08502	1621.87048	-379.25021	-505.431	1289.34119	-428.44058	-755.46399	47.47453	-377.61871	-624.77368	886.51428	-139.40475	-614.00806	890.62115	-492.1915	-643.34106	1537.53052	-478.84741	-441.64243	909.68512	-618.49536	-618.73126	259.37512	-503.09091	-584.27856	556.59021	-210.7937	-459.05615	860.86768	-650.42615	-564.50293	29.70085	-443.13776	-562.13654	403.13458	-236.27309	-639.73816	1378.60449	-435.3197	-552.87262	923.10413	-695.59637	-380.72153	861.97266	-628.16125	-626.12555	1137.08545	-685.24506	-653.29706	989.29736	-722.78687	-733.21289	378.53583	-229.88676	-950.24664	198.77228	-250.80714	-727.77905	1212.48523	-340.65283	-931.75037	340.31351	-269.67783	-738.72681	1109.14709	-397.70337	-794.94873	904.16638	-436.60013	-705.78619	67.82543	-433.15234	-978.74469	372.11093	-324.43613	-783.98834	897.21545	-292.09024	1973.05554	1023.94763	-3102.05371	2012.39246	1022.02057	-3140.68945	NaN	NaN	NaN	-552.87549	1648.91113	-401.13474	NaN	NaN	NaN	NaN	NaN	NaN	NaN	NaN	NaN	NaN	NaN	NaN	NaN	NaN	NaN	NaN	NaN	NaN	NaN	NaN	NaN	NaN	NaN	NaN	NaN	NaN	NaN	NaN	NaN	NaN	NaN	NaN	NaN	NaN	NaN	NaN	NaN	NaN	NaN	NaN	NaN	NaN	NaN	NaN	NaN	NaN	NaN	NaN	NaN	NaN	NaN	NaN	NaN	NaN
20	0.19	-557.11066	555.97296	-539.45886	-528.56982	425.72382	-513.49066	-700.42194	1121.26794	-89.38324	-446.2912	1125.88672	-415.37057	-579.10681	908.97638	-164.67729	-512.71075	1296.30054	-591.4007	-660.71576	992.53516	-93.61177	-648.83154	1224.33325	-149.85905	-513.57965	1334.45093	-278.2543	-565.3313	878.00604	-288.10327	-585.80249	1542.05298	-363.78616	-544.76428	844.73584	-135.89124	-500.84341	1609.30518	-493.00842	-487.91077	1619.75867	-381.5961	-460.4744	1287.38367	-427.80914	-754.96393	51.47721	-377.87729	-606.34192	883.54865	-120.25674	-574.55524	886.75916	-496.38052	-598.28223	1534.31873	-482.16766	-370.40231	918.9884	-602.22876	-604.98328	256.15237	-503.50461	-515.71106	564.74548	-211.50253	-381.80444	868.12421	-633.69025	-565.0144	29.56194	-443.25308	-481.21811	413.95828	-241.05524	-594.62115	1376.10339	-438.76816	-478.59271	924.15161	-685.39136	-305.89777	876.80933	-608.44556	-564.36035	1128.14099	-683.40198	-582.56714	980.46362	-717.30634	-650.58472	381.06296	-230.55705	-854.25031	188.65637	-247.16306	-684.49939	1211.6947	-343.72263	-847.76477	330.32813	-267.00113	-695.63043	1107.8385	-399.82513	-753.07965	905.14618	-434.892	-703.19641	69.11182	-433.64587	-899.47296	358.45465	-320.29755	-741.24744	892.42603	-291.50159	1973.10449	1023.30322	-3101.94727	2012.44788	1022.03278	-3140.62549	NaN	NaN	NaN	-511.03592	1645.94141	-403.61203	NaN	NaN	NaN	NaN	NaN	NaN	NaN	NaN	NaN	NaN	NaN	NaN	NaN	NaN	NaN	NaN	NaN	NaN	NaN	NaN	NaN	NaN	NaN	NaN	NaN	NaN	NaN	NaN	NaN	NaN	NaN	NaN	NaN	NaN	NaN	NaN	NaN	NaN	NaN	NaN	NaN	NaN	NaN	NaN	NaN	NaN	NaN	NaN	NaN	NaN	NaN	NaN	NaN	NaN
21	0.2	-524.70398	554.23151	-539.80225	-505.80151	421.32474	-513.36432	-665.51062	1131.12891	-89.06597	-401.75516	1124.2251	-413.24481	-556.1521	907.29211	-148.776	-462.1044	1294.12048	-590.13446	-633.58411	999.4516	-84.68697	-610.51727	1228.34692	-153.07649	-471.69418	1333.87708	-279.19031	-523.06921	876.97723	-287.96085	-542.28827	1540.6759	-366.55872	-525.91083	843.09644	-116.10153	-455.82523	1607.63623	-494.89804	-444.20273	1618.42139	-383.36829	-415.3923	1286.29944	-426.71878	-755.16046	56.80309	-379.23914	-586.41858	885.31024	-103.39955	-535.45941	882.65234	-500.27292	-553.23328	1532.68323	-485.02698	-302.12662	933.9328	-585.96979	-592.43457	256.10782	-505.10037	-448.14935	575.93591	-213.73096	-307.40594	881.5127	-616.59326	-566.24994	29.40891	-443.56143	-401.42511	428.78043	-246.71292	-550.15271	1374.28833	-441.55411	-406.04352	928.59137	-673.2785	-233.52116	897.49103	-588.03778	-503.81369	1122.96399	-680.92896	-514.23199	974.88019	-711.31476	-567.95502	385.92569	-232.14117	-754.93439	178.05275	-244.61414	-641.22418	1211.33496	-346.21332	-762.76709	319.14935	-264.80753	-651.8205	1107.24854	-402.42065	-709.70612	906.3075	-434.55777	-702.40088	72.12731	-434.94006	-818.85571	342.22702	-316.68161	-698.18604	896.52423	-292.8382	1973.04224	1023.63226	-3101.94141	2012.46924	1022.07941	-3140.70117	NaN	NaN	NaN	-468.09781	1644.93848	-405.78928	NaN	NaN	NaN	NaN	NaN	NaN	NaN	NaN	NaN	NaN	NaN	NaN	NaN	NaN	NaN	NaN	NaN	NaN	NaN	NaN	NaN	NaN	NaN	NaN	NaN	NaN	NaN	NaN	NaN	NaN	NaN	NaN	NaN	NaN	NaN	NaN	NaN	NaN	NaN	NaN	NaN	NaN	NaN	NaN	NaN	NaN	NaN	NaN	NaN	NaN	NaN	NaN	NaN	NaN
22	0.21	-493.61578	550.64014	-540.49854	-482.22574	416.73944	-513.4754	-630.91144	1142.05359	-88.71978	-358.10995	1123.7157	-411.34015	-531.37714	910.10443	-135.85886	-411.81882	1294.35193	-588.33453	-605.33441	1008.94318	-77.35499	-571.77612	1234.13574	-155.97897	-429.94589	1334.03943	-279.78995	-478.75952	878.6828	-288.78064	-498.38016	1540.63098	-368.68661	-504.32809	846.30426	-99.63804	-410.59052	1606.73877	-496.61237	-400.05411	1618.23022	-384.99615	-370.16901	1286.16931	-425.12634	-755.2962	64.40694	-381.229	-563.00275	892.49377	-89.66058	-487.02307	882.66089	-501.64771	-508.10364	1531.92749	-487.23126	-237.31276	953.24982	-570.51935	-581.19049	256.26447	-505.89227	-382.86304	589.14905	-217.8542	-236.14188	900.00238	-599.09253	-567.83282	29.48518	-443.82986	-323.75473	447.45282	-253.26068	-505.95157	1373.20154	-443.46375	-336.42282	935.63525	-660.42792	-165.01151	923.46399	-567.85669	-444.32376	1120.74878	-677.63226	-446.89874	971.25012	-704.5777	-486.21375	392.29425	-234.44696	-652.6026	167.58563	-242.54979	-597.8866	1211.41772	-348.78873	-676.42603	306.71078	-263.14691	-607.54199	1106.91724	-405.25699	-666.97845	907.48755	-435.33948	-701.86755	76.94558	-436.75464	-736.25024	323.68997	-313.69238	-654.61261	899.72632	-294.87689	1973.08105	1023.83966	-3101.91919	2012.61206	1022.10205	-3140.79175	NaN	NaN	NaN	-423.47446	1644.90332	-407.77094	NaN	NaN	NaN	NaN	NaN	NaN	NaN	NaN	NaN	NaN	NaN	NaN	NaN	NaN	NaN	NaN	NaN	NaN	NaN	NaN	NaN	NaN	NaN	NaN	NaN	NaN	NaN	NaN	NaN	NaN	NaN	NaN	NaN	NaN	NaN	NaN	NaN	NaN	NaN	NaN	NaN	NaN	NaN	NaN	NaN	NaN	NaN	NaN	NaN	NaN	NaN	NaN	NaN	NaN
23	0.22	-463.38019	546.98126	-541.08557	-460.12045	411.02594	-514.40845	-597.16302	1153.97302	-88.34792	-313.24741	1124.76404	-409.07843	-504.21286	917.33521	-125.27739	-362.33505	1296.77136	-586.64929	-576.09637	1020.46423	-71.5393	-533.49487	1241.8501	-158.04726	-388.19733	1335.18616	-279.6861	-434.37296	881.49341	-290.51422	-454.12473	1541.79187	-370.09821	-479.61774	853.61237	-86.37347	-365.41202	1606.88843	-497.91412	-355.84738	1619.34827	-386.30212	-325.00595	1287.35266	-422.9183	-754.22003	75.00948	-383.47787	-537.07178	902.95508	-78.85732	-443.34836	880.83453	-503.83578	-462.82654	1531.96252	-488.65567	-175.79652	976.40491	-554.88184	-572.27509	256.92694	-506.70801	-320.74963	604.50201	-223.48274	-168.68234	922.28937	-581.13074	-569.21368	29.36091	-444.21939	-249.09192	469.1983	-260.53445	-461.36285	1373.40186	-444.54999	-269.80725	945.61127	-647.49286	-101.51982	953.24347	-548.67987	-386.10187	1121.14392	-674.44354	-380.57193	970.47559	-697.38196	-406.10971	399.6524	-237.76285	-548.4447	159.38997	-241.86177	-554.49396	1212.17969	-351.85065	-588.39417	293.68854	-262.32101	-562.7439	1107.35767	-407.87909	-622.97406	908.40106	-436.77637	-700.69324	83.40456	-438.82645	-651.10028	303.69791	-311.685	-610.26453	902.52051	-296.9075	1972.92761	1024.07202	-3102.19873	2012.48462	1022.1059	-3140.80151	NaN	NaN	NaN	-378.24545	1645.72327	-409.51422	NaN	NaN	NaN	NaN	NaN	NaN	NaN	NaN	NaN	NaN	NaN	NaN	NaN	NaN	NaN	NaN	NaN	NaN	NaN	NaN	NaN	NaN	NaN	NaN	NaN	NaN	NaN	NaN	NaN	NaN	NaN	NaN	NaN	NaN	NaN	NaN	NaN	NaN	NaN	NaN	NaN	NaN	NaN	NaN	NaN	NaN	NaN	NaN	NaN	NaN	NaN	NaN	NaN	NaN
